<?xml version="1.0" encoding="UTF-8" standalone="no"?>
<!DOCTYPE svg PUBLIC "-//W3C//DTD SVG 1.1//EN"
 "http://www.w3.org/Graphics/SVG/1.1/DTD/svg11.dtd">
<!-- Generated by graphviz version 2.47.3 (20210619.1520)
 -->
<!-- Title: dependencies Pages: 1 -->
<svg width="891pt" height="247pt"
 viewBox="0.00 0.00 891.00 246.80" xmlns="http://www.w3.org/2000/svg" xmlns:xlink="http://www.w3.org/1999/xlink">
<g id="graph0" class="graph" transform="scale(1 1) rotate(0) translate(4 242.8)">
<title>dependencies</title>
<polygon fill="white" stroke="transparent" points="-4,4 -4,-242.8 887,-242.8 887,4 -4,4"/>
<text text-anchor="middle" x="441.5" y="-8.2" font-family="sans-serif" font-size="14.00">dependencies</text>
<g id="clust1" class="cluster">
<title>cluster_AppModule</title>
<polygon fill="none" stroke="black" stroke-dasharray="1,5" points="8,-32.8 8,-230.8 875,-230.8 875,-32.8 8,-32.8"/>
</g>
<g id="clust7" class="cluster">
<title>cluster_AppModule_imports</title>
<polygon fill="none" stroke="black" points="598,-40.8 598,-92.8 867,-92.8 867,-40.8 598,-40.8"/>
</g>
<g id="clust9" class="cluster">
<title>cluster_AppModule_bootstrap</title>
<polygon fill="none" stroke="black" points="398,-170.8 398,-222.8 522,-222.8 522,-170.8 398,-170.8"/>
</g>
<g id="clust2" class="cluster">
<title>cluster_AppModule_declarations</title>
<polygon fill="none" stroke="black" points="16,-40.8 16,-92.8 590,-92.8 590,-40.8 16,-40.8"/>
</g>
<!-- AppComponent -->
<g id="node1" class="node">
<title>AppComponent</title>
<polygon fill="#ffffb3" stroke="black" points="581.94,-84.8 476.06,-84.8 476.06,-48.8 581.94,-48.8 581.94,-84.8"/>
<text text-anchor="middle" x="529" y="-62.6" font-family="Times,serif" font-size="14.00">AppComponent</text>
</g>
<!-- AppModule -->
<g id="node5" class="node">
<title>AppModule</title>
<polygon fill="#8dd3c7" stroke="black" points="501.66,-149.8 498.66,-153.8 477.66,-153.8 474.66,-149.8 418.34,-149.8 418.34,-113.8 501.66,-113.8 501.66,-149.8"/>
<text text-anchor="middle" x="460" y="-127.6" font-family="Times,serif" font-size="14.00">AppModule</text>
</g>
<!-- AppComponent&#45;&gt;AppModule -->
<g id="edge1" class="edge">
<title>AppComponent&#45;&gt;AppModule</title>
<path fill="none" stroke="black" d="M489.05,-84.91C489.05,-84.91 489.05,-103.79 489.05,-103.79"/>
<polygon fill="black" stroke="black" points="485.55,-103.79 489.05,-113.79 492.55,-103.79 485.55,-103.79"/>
</g>
<!-- CalendarComponent -->
<g id="node2" class="node">
<title>CalendarComponent</title>
<polygon fill="#ffffb3" stroke="black" points="457.86,-84.8 326.14,-84.8 326.14,-48.8 457.86,-48.8 457.86,-84.8"/>
<text text-anchor="middle" x="392" y="-62.6" font-family="Times,serif" font-size="14.00">CalendarComponent</text>
</g>
<!-- CalendarComponent&#45;&gt;AppModule -->
<g id="edge2" class="edge">
<title>CalendarComponent&#45;&gt;AppModule</title>
<path fill="none" stroke="black" d="M438.05,-84.91C438.05,-84.91 438.05,-103.79 438.05,-103.79"/>
<polygon fill="black" stroke="black" points="434.55,-103.79 438.05,-113.79 441.55,-103.79 434.55,-103.79"/>
</g>
<!-- EditTicketComponent -->
<g id="node3" class="node">
<title>EditTicketComponent</title>
<polygon fill="#ffffb3" stroke="black" points="308.43,-84.8 167.57,-84.8 167.57,-48.8 308.43,-48.8 308.43,-84.8"/>
<text text-anchor="middle" x="238" y="-62.6" font-family="Times,serif" font-size="14.00">EditTicketComponent</text>
</g>
<!-- EditTicketComponent&#45;&gt;AppModule -->
<g id="edge3" class="edge">
<title>EditTicketComponent&#45;&gt;AppModule</title>
<path fill="none" stroke="black" d="M238,-84.82C238,-102.17 238,-125.8 238,-125.8 238,-125.8 408.24,-125.8 408.24,-125.8"/>
<polygon fill="black" stroke="black" points="408.24,-129.3 418.24,-125.8 408.24,-122.3 408.24,-129.3"/>
</g>
<!-- ToolbarComponent -->
<g id="node4" class="node">
<title>ToolbarComponent</title>
<polygon fill="#ffffb3" stroke="black" points="149.65,-84.8 24.35,-84.8 24.35,-48.8 149.65,-48.8 149.65,-84.8"/>
<text text-anchor="middle" x="87" y="-62.6" font-family="Times,serif" font-size="14.00">ToolbarComponent</text>
</g>
<!-- ToolbarComponent&#45;&gt;AppModule -->
<g id="edge4" class="edge">
<title>ToolbarComponent&#45;&gt;AppModule</title>
<path fill="none" stroke="black" d="M87,-85.08C87,-106.12 87,-137.8 87,-137.8 87,-137.8 408.3,-137.8 408.3,-137.8"/>
<polygon fill="black" stroke="black" points="408.3,-141.3 418.3,-137.8 408.3,-134.3 408.3,-141.3"/>
</g>
<!-- AppComponent  -->
<g id="node8" class="node">
<title>AppComponent </title>
<polygon fill="#80b1d3" stroke="black" points="514.44,-214.8 405.56,-214.8 405.56,-178.8 514.44,-178.8 514.44,-214.8"/>
<text text-anchor="middle" x="460" y="-192.6" font-family="Times,serif" font-size="14.00">AppComponent </text>
</g>
<!-- AppModule&#45;&gt;AppComponent  -->
<g id="edge7" class="edge">
<title>AppModule&#45;&gt;AppComponent </title>
<path fill="none" stroke="black" stroke-dasharray="1,5" d="M460,-149.91C460,-149.91 460,-168.79 460,-168.79"/>
<polygon fill="black" stroke="black" points="456.5,-168.79 460,-178.79 463.5,-168.79 456.5,-168.79"/>
</g>
<!-- AppRoutingModule -->
<g id="node6" class="node">
<title>AppRoutingModule</title>
<polygon fill="#8dd3c7" stroke="black" points="859.27,-84.8 856.27,-88.8 835.27,-88.8 832.27,-84.8 730.73,-84.8 730.73,-48.8 859.27,-48.8 859.27,-84.8"/>
<text text-anchor="middle" x="795" y="-62.6" font-family="Times,serif" font-size="14.00">AppRoutingModule</text>
</g>
<!-- AppRoutingModule&#45;&gt;AppModule -->
<g id="edge5" class="edge">
<title>AppRoutingModule&#45;&gt;AppModule</title>
<path fill="none" stroke="black" d="M795,-85.08C795,-106.12 795,-137.8 795,-137.8 795,-137.8 511.75,-137.8 511.75,-137.8"/>
<polygon fill="black" stroke="black" points="511.75,-134.3 501.75,-137.8 511.75,-141.3 511.75,-134.3"/>
</g>
<!-- MaterialModule -->
<g id="node7" class="node">
<title>MaterialModule</title>
<polygon fill="#8dd3c7" stroke="black" points="712.47,-84.8 709.47,-88.8 688.47,-88.8 685.47,-84.8 605.53,-84.8 605.53,-48.8 712.47,-48.8 712.47,-84.8"/>
<text text-anchor="middle" x="659" y="-62.6" font-family="Times,serif" font-size="14.00">MaterialModule</text>
</g>
<!-- MaterialModule&#45;&gt;AppModule -->
<g id="edge6" class="edge">
<title>MaterialModule&#45;&gt;AppModule</title>
<path fill="none" stroke="black" d="M659,-84.82C659,-102.17 659,-125.8 659,-125.8 659,-125.8 511.72,-125.8 511.72,-125.8"/>
<polygon fill="black" stroke="black" points="511.72,-122.3 501.72,-125.8 511.72,-129.3 511.72,-122.3"/>
</g>
</g>
</svg>
