<?xml version="1.0" standalone="no"?>
<!DOCTYPE svg PUBLIC "-//W3C//DTD SVG 20010904//EN"
 "http://www.w3.org/TR/2001/REC-SVG-20010904/DTD/svg10.dtd">
<svg version="1.0" xmlns="http://www.w3.org/2000/svg"
 width="256.000000pt" height="256.000000pt" viewBox="0 0 256.000000 256.000000"
 preserveAspectRatio="xMidYMid meet">
<metadata>
Created by potrace 1.14, written by Peter Selinger 2001-2017
</metadata>
<g transform="translate(0.000000,256.000000) scale(0.100000,-0.100000)"
fill="#000000" stroke="none">
<path d="M345 2535 c-25 -24 -25 -26 -25 -215 0 -189 0 -191 25 -215 15 -16
36 -25 55 -25 19 0 40 9 55 25 25 24 25 26 25 215 0 189 0 191 -25 215 -15 16
-36 25 -55 25 -19 0 -40 -9 -55 -25z"/>
<path d="M1625 2535 c-25 -24 -25 -26 -25 -215 0 -189 0 -191 25 -215 15 -16
36 -25 55 -25 19 0 40 9 55 25 25 24 25 26 25 215 0 189 0 191 -25 215 -15 16
-36 25 -55 25 -19 0 -40 -9 -55 -25z"/>
<path d="M110 2229 c-35 -14 -69 -48 -91 -91 -19 -37 -19 -65 -17 -791 l3
-754 28 -36 c16 -21 46 -46 67 -57 38 -19 60 -20 530 -20 l490 0 0 80 0 80
-477 2 -478 3 -3 558 -2 557 880 0 880 0 0 -160 0 -160 80 0 81 0 -3 344 -3
344 -31 39 c-40 50 -87 73 -151 73 l-53 0 0 -56 c0 -69 -21 -116 -68 -152 -29
-22 -46 -27 -92 -27 -101 0 -160 67 -160 180 l0 55 -480 0 -480 0 0 -56 c0
-69 -21 -116 -68 -152 -29 -22 -46 -27 -92 -27 -101 0 -160 67 -160 180 l0 55
-52 -1 c-29 0 -64 -5 -78 -10z"/>
<path d="M320 1440 l0 -160 160 0 160 0 0 160 0 160 -160 0 -160 0 0 -160z"/>
<path d="M800 1440 l0 -160 160 0 160 0 0 160 0 160 -160 0 -160 0 0 -160z"/>
<path d="M1280 1440 l0 -160 160 0 160 0 0 160 0 160 -160 0 -160 0 0 -160z"/>
<path d="M1805 1269 c-224 -37 -427 -218 -497 -442 -90 -290 50 -619 322 -755
254 -127 541 -82 740 118 253 252 253 648 0 900 -150 151 -353 215 -565 179z
m228 -165 c91 -23 155 -60 223 -128 191 -191 191 -481 0 -672 -122 -122 -279
-168 -444 -129 -91 22 -158 60 -228 129 -122 122 -168 279 -129 444 22 91 60
158 129 228 122 122 289 170 449 128z"/>
<path d="M1785 935 c-25 -24 -25 -26 -25 -215 0 -257 -17 -240 240 -240 189 0
191 0 215 25 33 32 33 78 0 110 -23 24 -29 25 -160 25 l-135 0 0 135 c0 131
-1 137 -25 160 -15 16 -36 25 -55 25 -19 0 -40 -9 -55 -25z"/>
<path d="M320 960 l0 -160 160 0 160 0 0 160 0 160 -160 0 -160 0 0 -160z"/>
<path d="M800 960 l0 -160 160 0 160 0 0 160 0 160 -160 0 -160 0 0 -160z"/>
</g>
</svg>
