<?xml version="1.0" encoding="UTF-8" standalone="no"?>
<!DOCTYPE svg PUBLIC "-//W3C//DTD SVG 1.1//EN"
 "http://www.w3.org/Graphics/SVG/1.1/DTD/svg11.dtd">
<!-- Generated by graphviz version 2.47.3 (20210619.1520)
 -->
<!-- Title: dependencies Pages: 1 -->
<svg width="891pt" height="247pt"
 viewBox="0.00 0.00 891.00 246.80" xmlns="http://www.w3.org/2000/svg" xmlns:xlink="http://www.w3.org/1999/xlink">
<g id="graph0" class="graph" transform="scale(1 1) rotate(0) translate(4 242.8)">
<title>dependencies</title>
<polygon fill="white" stroke="transparent" points="-4,4 -4,-242.8 887,-242.8 887,4 -4,4"/>
<text text-anchor="middle" x="441.5" y="-8.2" font-family="sans-serif" font-size="14.00">dependencies</text>
<g id="clust1" class="cluster">
<title>cluster_AppModule</title>
<polygon fill="none" stroke="black" stroke-dasharray="1,5" points="8,-32.8 8,-230.8 875,-230.8 875,-32.8 8,-32.8"/>
</g>
<g id="clust2" class="cluster">
<title>cluster_AppModule_declarations</title>
<polygon fill="none" stroke="black" points="293,-40.8 293,-92.8 867,-92.8 867,-40.8 293,-40.8"/>
</g>
<g id="clust7" class="cluster">
<title>cluster_AppModule_imports</title>
<polygon fill="none" stroke="black" points="16,-40.8 16,-92.8 285,-92.8 285,-40.8 16,-40.8"/>
</g>
<g id="clust9" class="cluster">
<title>cluster_AppModule_bootstrap</title>
<polygon fill="none" stroke="black" points="377,-170.8 377,-222.8 501,-222.8 501,-170.8 377,-170.8"/>
</g>
<!-- AppComponent -->
<g id="node1" class="node">
<title>AppComponent</title>
<polygon fill="#ffffb3" stroke="black" points="858.94,-84.8 753.06,-84.8 753.06,-48.8 858.94,-48.8 858.94,-84.8"/>
<text text-anchor="middle" x="806" y="-62.6" font-family="Times,serif" font-size="14.00">AppComponent</text>
</g>
<!-- AppModule -->
<g id="node5" class="node">
<title>AppModule</title>
<polygon fill="#8dd3c7" stroke="black" points="480.66,-149.8 477.66,-153.8 456.66,-153.8 453.66,-149.8 397.34,-149.8 397.34,-113.8 480.66,-113.8 480.66,-149.8"/>
<text text-anchor="middle" x="439" y="-127.6" font-family="Times,serif" font-size="14.00">AppModule</text>
</g>
<!-- AppComponent&#45;&gt;AppModule -->
<g id="edge1" class="edge">
<title>AppComponent&#45;&gt;AppModule</title>
<path fill="none" stroke="black" d="M806,-85.08C806,-106.12 806,-137.8 806,-137.8 806,-137.8 490.74,-137.8 490.74,-137.8"/>
<polygon fill="black" stroke="black" points="490.74,-134.3 480.74,-137.8 490.74,-141.3 490.74,-134.3"/>
</g>
<!-- CalendarComponent -->
<g id="node2" class="node">
<title>CalendarComponent</title>
<polygon fill="#ffffb3" stroke="black" points="734.86,-84.8 603.14,-84.8 603.14,-48.8 734.86,-48.8 734.86,-84.8"/>
<text text-anchor="middle" x="669" y="-62.6" font-family="Times,serif" font-size="14.00">CalendarComponent</text>
</g>
<!-- CalendarComponent&#45;&gt;AppModule -->
<g id="edge2" class="edge">
<title>CalendarComponent&#45;&gt;AppModule</title>
<path fill="none" stroke="black" d="M669,-84.82C669,-102.17 669,-125.8 669,-125.8 669,-125.8 490.92,-125.8 490.92,-125.8"/>
<polygon fill="black" stroke="black" points="490.92,-122.3 480.92,-125.8 490.92,-129.3 490.92,-122.3"/>
</g>
<!-- EditTicketComponent -->
<g id="node3" class="node">
<title>EditTicketComponent</title>
<polygon fill="#ffffb3" stroke="black" points="585.43,-84.8 444.57,-84.8 444.57,-48.8 585.43,-48.8 585.43,-84.8"/>
<text text-anchor="middle" x="515" y="-62.6" font-family="Times,serif" font-size="14.00">EditTicketComponent</text>
</g>
<!-- EditTicketComponent&#45;&gt;AppModule -->
<g id="edge3" class="edge">
<title>EditTicketComponent&#45;&gt;AppModule</title>
<path fill="none" stroke="black" d="M462.81,-84.91C462.81,-84.91 462.81,-103.79 462.81,-103.79"/>
<polygon fill="black" stroke="black" points="459.31,-103.79 462.81,-113.79 466.31,-103.79 459.31,-103.79"/>
</g>
<!-- ToolbarComponent -->
<g id="node4" class="node">
<title>ToolbarComponent</title>
<polygon fill="#ffffb3" stroke="black" points="426.65,-84.8 301.35,-84.8 301.35,-48.8 426.65,-48.8 426.65,-84.8"/>
<text text-anchor="middle" x="364" y="-62.6" font-family="Times,serif" font-size="14.00">ToolbarComponent</text>
</g>
<!-- ToolbarComponent&#45;&gt;AppModule -->
<g id="edge4" class="edge">
<title>ToolbarComponent&#45;&gt;AppModule</title>
<path fill="none" stroke="black" d="M412,-84.91C412,-84.91 412,-103.79 412,-103.79"/>
<polygon fill="black" stroke="black" points="408.5,-103.79 412,-113.79 415.5,-103.79 408.5,-103.79"/>
</g>
<!-- AppComponent  -->
<g id="node8" class="node">
<title>AppComponent </title>
<polygon fill="#80b1d3" stroke="black" points="493.44,-214.8 384.56,-214.8 384.56,-178.8 493.44,-178.8 493.44,-214.8"/>
<text text-anchor="middle" x="439" y="-192.6" font-family="Times,serif" font-size="14.00">AppComponent </text>
</g>
<!-- AppModule&#45;&gt;AppComponent  -->
<g id="edge7" class="edge">
<title>AppModule&#45;&gt;AppComponent </title>
<path fill="none" stroke="black" stroke-dasharray="1,5" d="M439,-149.91C439,-149.91 439,-168.79 439,-168.79"/>
<polygon fill="black" stroke="black" points="435.5,-168.79 439,-178.79 442.5,-168.79 435.5,-168.79"/>
</g>
<!-- AppRoutingModule -->
<g id="node6" class="node">
<title>AppRoutingModule</title>
<polygon fill="#8dd3c7" stroke="black" points="277.27,-84.8 274.27,-88.8 253.27,-88.8 250.27,-84.8 148.73,-84.8 148.73,-48.8 277.27,-48.8 277.27,-84.8"/>
<text text-anchor="middle" x="213" y="-62.6" font-family="Times,serif" font-size="14.00">AppRoutingModule</text>
</g>
<!-- AppRoutingModule&#45;&gt;AppModule -->
<g id="edge5" class="edge">
<title>AppRoutingModule&#45;&gt;AppModule</title>
<path fill="none" stroke="black" d="M213,-84.82C213,-102.17 213,-125.8 213,-125.8 213,-125.8 387.28,-125.8 387.28,-125.8"/>
<polygon fill="black" stroke="black" points="387.28,-129.3 397.28,-125.8 387.28,-122.3 387.28,-129.3"/>
</g>
<!-- MaterialModule -->
<g id="node7" class="node">
<title>MaterialModule</title>
<polygon fill="#8dd3c7" stroke="black" points="130.47,-84.8 127.47,-88.8 106.47,-88.8 103.47,-84.8 23.53,-84.8 23.53,-48.8 130.47,-48.8 130.47,-84.8"/>
<text text-anchor="middle" x="77" y="-62.6" font-family="Times,serif" font-size="14.00">MaterialModule</text>
</g>
<!-- MaterialModule&#45;&gt;AppModule -->
<g id="edge6" class="edge">
<title>MaterialModule&#45;&gt;AppModule</title>
<path fill="none" stroke="black" d="M77,-85.08C77,-106.12 77,-137.8 77,-137.8 77,-137.8 387.12,-137.8 387.12,-137.8"/>
<polygon fill="black" stroke="black" points="387.12,-141.3 397.12,-137.8 387.12,-134.3 387.12,-141.3"/>
</g>
</g>
</svg>
